<?xml version="1.0" encoding="UTF-8" standalone="no"?>
<!-- Generator: Adobe Illustrator 16.0.0, SVG Export Plug-In . SVG Version: 6.00 Build 0)  -->

<svg
        xmlns:dc="http://purl.org/dc/elements/1.1/"
        xmlns:cc="http://creativecommons.org/ns#"
        xmlns:rdf="http://www.w3.org/1999/02/22-rdf-syntax-ns#"
        xmlns="http://www.w3.org/2000/svg"
        xmlns:sodipodi="http://sodipodi.sourceforge.net/DTD/sodipodi-0.dtd"
        xmlns:inkscape="http://www.inkscape.org/namespaces/inkscape"
        version="1.1"
        id="Capa_1"
        x="0px"
        y="0px"
        width="484.5px"
        height="484.5px"
        viewBox="0 0 484.5 484.5"
        style="enable-background:new 0 0 484.5 484.5;"
        xml:space="preserve"
        sodipodi:docname="bus.svg"
        inkscape:version="0.92.3 (2405546, 2018-03-11)"><metadata
   id="metadata42"><rdf:RDF><cc:Work
       rdf:about=""><dc:format>image/svg+xml</dc:format><dc:type
         rdf:resource="http://purl.org/dc/dcmitype/StillImage" /></cc:Work></rdf:RDF></metadata><defs
   id="defs40" /><sodipodi:namedview
   pagecolor="#ffffff"
   bordercolor="#666666"
   borderopacity="1"
   objecttolerance="10"
   gridtolerance="10"
   guidetolerance="10"
   inkscape:pageopacity="0"
   inkscape:pageshadow="2"
   inkscape:window-width="1920"
   inkscape:window-height="1020"
   id="namedview38"
   showgrid="false"
   inkscape:zoom="0.4871001"
   inkscape:cx="-562.51271"
   inkscape:cy="242.25"
   inkscape:window-x="0"
   inkscape:window-y="0"
   inkscape:window-maximized="1"
   inkscape:current-layer="Capa_1" />
<g
   id="g5">
	<g
   id="directions-bus">
		<path
   d="M38.25,357c0,22.95,10.2,43.35,25.5,56.1V459c0,15.3,10.2,25.5,25.5,25.5h25.5c15.3,0,25.5-10.2,25.5-25.5v-25.5h204V459    c0,15.3,10.2,25.5,25.5,25.5h25.5c15.3,0,25.5-10.2,25.5-25.5v-45.9c15.3-12.75,25.5-33.149,25.5-56.1V102    c0-89.25-91.8-102-204-102s-204,12.75-204,102V357z M127.5,382.5c-20.4,0-38.25-17.85-38.25-38.25S107.1,306,127.5,306    s38.25,17.85,38.25,38.25S147.9,382.5,127.5,382.5z M357,382.5c-20.4,0-38.25-17.85-38.25-38.25S336.6,306,357,306    s38.25,17.85,38.25,38.25S377.4,382.5,357,382.5z M395.25,229.5h-306V102h306V229.5z"
   id="path2" />
	</g>
</g>
<g
   id="g7">
</g>
<g
   id="g9">
</g>
<g
   id="g11">
</g>
<g
   id="g13">
</g>
<g
   id="g15">
</g>
<g
   id="g17">
</g>
<g
   id="g19">
</g>
<g
   id="g21">
</g>
<g
   id="g23">
</g>
<g
   id="g25">
</g>
<g
   id="g27">
</g>
<g
   id="g29">
</g>
<g
   id="g31">
</g>
<g
   id="g33">
</g>
<g
   id="g35">
</g>
<path
   style="fill:#d40000;fill-opacity:1;stroke:#f0f0f0;stroke-width:5.98;stroke-miterlimit:4;stroke-dasharray:none;stroke-opacity:1"
   d="M 78.112611,480.90431 C 66.906274,475.37368 64.873729,469.0876 64.873729,439.96022 v -26.04544 l -7.069186,-8.25876 C 48.048193,394.25791 42.632753,381.86648 40.271385,365.5372 37.729889,347.96232 37.609828,115.58286 40.129872,91.638457 45.360918,41.935265 78.003139,17.020682 153.15127,5.3734659 c 24.14815,-3.7427238 154.45989,-3.7427238 178.60805,0 C 390.6466,14.500412 421.39905,31.3028 436.92434,62.833083 l 6.72163,13.650978 0.57775,147.096679 c 0.57036,145.21235 0.52242,147.24458 -3.7418,158.6417 -2.37575,6.34976 -7.94779,16.13508 -12.3823,21.74518 l -8.06276,10.20014 -0.0302,25.20924 c -0.0339,28.12912 -1.46436,32.85899 -12.1078,40.0316 -5.85843,3.94794 -9.64085,4.68081 -24.15847,4.68081 -31.14823,0 -37.61034,-5.72226 -37.61034,-33.30427 V 432.76525 H 242.4553 138.78051 v 16.52568 c 0,19.68078 -3.36696,27.68255 -13.4147,31.88076 -9.48055,3.96122 -39.023794,3.79407 -47.253199,-0.26738 z m 66.253779,-101.7357 c 15.90975,-7.70176 25.31682,-27.15261 20.99257,-43.406 -10.55262,-39.66374 -65.1742,-40.03467 -75.58043,-0.51325 -6.026741,22.88873 13.71763,48.2383 37.57574,48.24309 4.44231,9e-4 12.09777,-1.94484 17.01212,-4.32384 z m 227.42577,0.43332 c 15.7908,-7.3109 23.60911,-19.53021 23.60911,-36.8989 0,-26.92543 -31.02118,-45.56823 -55.25363,-33.20576 -29.26978,14.93233 -29.20367,55.05264 0.11455,69.56479 10.91283,5.40171 20.66804,5.56874 31.52989,0.53987 z m 23.60911,-214.76182 v -64.6815 l -153.45921,0.52631 -153.459221,0.52631 -0.54249,64.15519 -0.542488,64.15519 H 241.39956 395.40127 Z"
   id="path849"
   inkscape:connector-curvature="0" /><path
   style="fill:#aa0000;fill-opacity:1;stroke:#f0f0f0;stroke-width:12.27673721;stroke-miterlimit:4;stroke-dasharray:none;stroke-opacity:1"
   d="M 80.033536,477.03874 C 71.139764,473.16771 68.979658,465.29641 68.979658,436.75908 v -24.135 l -7.496469,-8.91936 C 50.767812,390.95551 46.391307,379.6774 44.245058,359.28262 41.709161,335.18521 41.839176,118.52496 44.404235,94.025849 49.436876,45.958643 77.272473,22.995416 145.47951,10.642879 c 28.02823,-5.0760098 166.18603,-5.0199235 194.49167,0.07896 51.88355,9.34612 78.6749,25.392031 94.39631,56.535954 l 6.35181,12.582849 -0.58963,148.234018 -0.58963,148.23403 -5.43841,10.26483 c -2.99113,5.64566 -8.30318,13.85625 -11.80456,18.24573 -6.3088,7.90904 -6.36614,8.1991 -6.36614,32.20057 0,27.86809 -1.45243,33.14574 -10.72689,38.97756 -5.8114,3.65423 -9.30446,4.12855 -25.75284,3.49702 -26.3055,-1.01 -27.94224,-2.72969 -28.89433,-30.35832 l -0.7056,-20.47676 H 242.26292 134.67457 v 16.11739 c 0,21.00923 -2.72841,28.68182 -11.50319,32.34815 -8.68321,3.62809 -34.723855,3.57609 -43.137844,-0.0862 z m 58.906514,-91.78206 c 40.18888,-12.04087 40.4068,-69.39559 0.30796,-81.05264 -13.33264,-3.87589 -23.80417,-2.41613 -35.07015,4.88885 -23.472787,15.22004 -24.83625,49.97507 -2.67965,68.30475 11.67311,9.65693 23.29731,12.09684 37.44184,7.85904 z m 239.22388,-4.85828 c 11.27062,-6.60501 16.87996,-14.63945 19.65298,-28.14955 3.15828,-15.38696 -0.35206,-26.94647 -11.41373,-37.58529 -14.42428,-13.87292 -30.7149,-16.62642 -47.84977,-8.08775 -14.25229,7.10222 -21.68401,18.09655 -22.81659,33.75442 -1.11622,15.43151 1.90427,24.14873 11.67243,33.6871 14.79137,14.44338 33.07499,16.74206 50.75468,6.38107 z M 399.5072,164.61258 V 95.597622 l -155.89738,0.79687 C 157.86627,96.832771 87.028342,97.87547 86.19221,98.7116 c -0.836132,0.836133 -1.939784,31.53427 -2.452561,68.21809 l -0.932324,66.69785 H 241.15726 399.5072 Z"
   id="path830"
   inkscape:connector-curvature="0" /></svg>