<?xml version="1.0" encoding="UTF-8" standalone="no"?>
<!DOCTYPE svg PUBLIC "-//W3C//DTD SVG 1.1//EN" "http://www.w3.org/Graphics/SVG/1.1/DTD/svg11.dtd">
<svg version="1.1" xmlns="http://www.w3.org/2000/svg" xmlns:xlink="http://www.w3.org/1999/xlink" preserveAspectRatio="xMidYMid meet" viewBox="107.13559322033888 1.9096131405587187 84.5084745762712 109.93220338983053" width="80.51" height="105.93"><defs><path d="M151.69 3.03L153.32 3.19L154.92 3.4L156.5 3.67L158.06 3.99L159.6 4.37L161.11 4.81L162.6 5.3L164.06 5.84L165.49 6.43L166.89 7.07L168.26 7.76L169.59 8.49L170.9 9.28L172.16 10.1L173.39 10.97L174.59 11.88L175.74 12.83L176.85 13.83L177.93 14.86L178.95 15.93L179.94 17.03L180.88 18.17L181.77 19.34L182.61 20.55L183.41 21.79L184.15 23.05L184.84 24.35L185.48 25.67L186.06 27.02L186.59 28.4L187.06 29.8L187.47 31.23L187.83 32.67L188.12 34.14L188.35 35.62L188.51 37.13L188.61 38.65L188.64 40.18L188.61 41.72L188.51 43.24L188.35 44.76L188.12 46.26L187.83 47.76L187.47 49.24L187.06 50.73L186.59 52.21L186.06 53.7L185.48 55.18L184.84 56.67L184.15 58.16L183.41 59.66L182.61 61.16L181.77 62.68L180.88 64.2L179.94 65.74L178.95 67.3L177.93 68.87L176.85 70.46L175.74 72.07L174.59 73.7L173.39 75.36L172.16 77.04L170.9 78.75L169.59 80.49L168.26 82.26L166.89 84.06L165.49 85.9L164.06 87.77L162.6 89.68L161.11 91.62L159.6 93.61L158.06 95.65L156.5 97.72L154.92 99.85L153.32 102.02L151.69 104.24L150.05 106.52L148.39 108.84L146.73 106.52L145.09 104.24L143.46 102.02L141.86 99.85L140.28 97.72L138.72 95.65L137.18 93.61L135.67 91.62L134.18 89.68L132.72 87.77L131.29 85.9L129.89 84.06L128.52 82.26L127.19 80.49L125.88 78.75L124.62 77.04L123.39 75.36L122.19 73.7L121.04 72.07L119.93 70.46L118.85 68.87L117.83 67.3L116.84 65.74L115.9 64.2L115.01 62.68L114.17 61.16L113.37 59.66L112.63 58.16L111.94 56.67L111.3 55.18L110.72 53.7L110.19 52.21L109.72 50.73L109.31 49.24L108.95 47.76L108.66 46.26L108.43 44.76L108.27 43.24L108.17 41.72L108.14 40.18L108.17 38.65L108.27 37.13L108.43 35.62L108.66 34.14L108.95 32.67L109.31 31.23L109.72 29.8L110.19 28.4L110.72 27.02L111.3 25.67L111.94 24.35L112.63 23.05L113.37 21.79L114.17 20.55L115.01 19.34L115.9 18.17L116.84 17.03L117.83 15.93L118.85 14.86L119.93 13.83L121.04 12.83L122.19 11.88L123.39 10.97L124.62 10.1L125.88 9.28L127.19 8.49L128.52 7.76L129.89 7.07L131.29 6.43L132.72 5.84L134.18 5.3L135.67 4.81L137.18 4.37L138.72 3.99L140.28 3.67L141.86 3.4L143.46 3.19L145.09 3.03L146.73 2.94L148.39 2.91L150.05 2.94L151.69 3.03ZM146.83 20.62L146.06 20.7L145.3 20.8L144.55 20.92L143.81 21.08L143.08 21.26L142.36 21.47L141.66 21.7L140.97 21.95L140.29 22.23L139.63 22.54L138.98 22.86L138.35 23.21L137.73 23.58L137.13 23.97L136.55 24.38L135.98 24.81L135.43 25.27L134.91 25.74L134.4 26.22L133.91 26.73L133.45 27.25L133 27.79L132.58 28.35L132.18 28.92L131.8 29.51L131.45 30.11L131.12 30.72L130.82 31.35L130.54 31.99L130.29 32.64L130.07 33.3L129.88 33.98L129.71 34.66L129.57 35.36L129.46 36.06L129.39 36.77L129.34 37.49L129.32 38.22L129.34 38.95L129.39 39.67L129.46 40.38L129.57 41.08L129.71 41.78L129.88 42.46L130.07 43.14L130.29 43.8L130.54 44.45L130.82 45.09L131.12 45.72L131.45 46.33L131.8 46.93L132.18 47.52L132.58 48.09L133 48.65L133.45 49.19L133.91 49.71L134.4 50.22L134.91 50.7L135.43 51.17L135.98 51.63L136.55 52.06L137.13 52.47L137.73 52.86L138.35 53.23L138.98 53.58L139.63 53.91L140.29 54.21L140.97 54.49L141.66 54.74L142.36 54.98L143.08 55.18L143.81 55.36L144.55 55.52L145.3 55.64L146.06 55.74L146.83 55.82L147.6 55.86L148.39 55.88L149.18 55.86L149.95 55.82L150.72 55.74L151.48 55.64L152.23 55.52L152.97 55.36L153.7 55.18L154.42 54.98L155.12 54.74L155.81 54.49L156.49 54.21L157.15 53.91L157.8 53.58L158.43 53.23L159.05 52.86L159.65 52.47L160.23 52.06L160.8 51.63L161.35 51.17L161.87 50.7L162.38 50.22L162.87 49.71L163.33 49.19L163.78 48.65L164.2 48.09L164.6 47.52L164.98 46.93L165.33 46.33L165.66 45.72L165.96 45.09L166.24 44.45L166.49 43.8L166.71 43.14L166.9 42.46L167.07 41.78L167.21 41.08L167.32 40.38L167.39 39.67L167.44 38.95L167.46 38.22L167.44 37.49L167.39 36.77L167.32 36.06L167.21 35.36L167.07 34.66L166.9 33.98L166.71 33.3L166.49 32.64L166.24 31.99L165.96 31.35L165.66 30.72L165.33 30.11L164.98 29.51L164.6 28.92L164.2 28.35L163.78 27.79L163.33 27.25L162.87 26.73L162.38 26.22L161.87 25.74L161.35 25.27L160.8 24.81L160.23 24.38L159.65 23.97L159.05 23.58L158.43 23.21L157.8 22.86L157.15 22.54L156.49 22.23L155.81 21.95L155.12 21.7L154.42 21.47L153.7 21.26L152.97 21.08L152.23 20.92L151.48 20.8L150.72 20.7L149.95 20.62L149.18 20.58L148.39 20.56L147.6 20.58L146.83 20.62Z" id="a4utMvYXJs"></path><radialGradient id="gradientaaScyvqSp" gradientUnits="userSpaceOnUse" cx="148.39" cy="2.91" dx="150.08" dy="174.94" r="172.04"><stop style="stop-color: #ff0b0b;stop-opacity: 1" offset="0%"></stop><stop style="stop-color: #ce0909;stop-opacity: 1" offset="19.199999999999985%"></stop><stop style="stop-color: #010000;stop-opacity: 1" offset="100%"></stop></radialGradient></defs><g><g><use xlink:href="#a4utMvYXJs" opacity="1" fill="url(#gradientaaScyvqSp)"></use><g><use xlink:href="#a4utMvYXJs" opacity="1" fill-opacity="0" stroke="#f4f4f4" stroke-width="1" stroke-opacity="1"></use></g></g></g></svg>