<?xml version="1.0" encoding="UTF-8" standalone="no"?>
<!DOCTYPE svg PUBLIC "-//W3C//DTD SVG 1.1//EN" "http://www.w3.org/Graphics/SVG/1.1/DTD/svg11.dtd">
<svg version="1.1" xmlns="http://www.w3.org/2000/svg" xmlns:xlink="http://www.w3.org/1999/xlink" preserveAspectRatio="xMidYMid meet" viewBox="526.7118644067796 1.9096131405587187 84.50847457627128 109.93220338983053" width="80.51" height="105.93"><defs><path d="M571.27 3.03L572.89 3.19L574.5 3.4L576.08 3.67L577.64 3.99L579.18 4.37L580.69 4.81L582.18 5.3L583.63 5.84L585.07 6.43L586.47 7.07L587.83 7.76L589.17 8.49L590.47 9.28L591.74 10.1L592.97 10.97L594.16 11.88L595.32 12.83L596.43 13.83L597.5 14.86L598.53 15.93L599.51 17.03L600.45 18.17L601.35 19.34L602.19 20.55L602.98 21.79L603.73 23.05L604.42 24.35L605.06 25.67L605.64 27.02L606.17 28.4L606.64 29.8L607.05 31.23L607.4 32.67L607.69 34.14L607.92 35.62L608.09 37.13L608.19 38.65L608.22 40.18L608.19 41.72L608.09 43.24L607.92 44.76L607.69 46.26L607.4 47.76L607.05 49.24L606.64 50.73L606.17 52.21L605.64 53.7L605.06 55.18L604.42 56.67L603.73 58.16L602.98 59.66L602.19 61.16L601.35 62.68L600.45 64.2L599.51 65.74L598.53 67.3L597.5 68.87L596.43 70.46L595.32 72.07L594.16 73.7L592.97 75.36L591.74 77.04L590.47 78.75L589.17 80.49L587.83 82.26L586.47 84.06L585.07 85.9L583.63 87.77L582.18 89.68L580.69 91.62L579.18 93.61L577.64 95.65L576.08 97.72L574.5 99.85L572.89 102.02L571.27 104.24L569.63 106.52L567.97 108.84L566.31 106.52L564.66 104.24L563.04 102.02L561.44 99.85L559.85 97.72L558.29 95.65L556.76 93.61L555.24 91.62L553.76 89.68L552.3 87.77L550.87 85.9L549.47 84.06L548.1 82.26L546.76 80.49L545.46 78.75L544.19 77.04L542.96 75.36L541.77 73.7L540.62 72.07L539.5 70.46L538.43 68.87L537.4 67.3L536.42 65.74L535.48 64.2L534.59 62.68L533.74 61.16L532.95 59.66L532.2 58.16L531.51 56.67L530.88 55.18L530.29 53.7L529.76 52.21L529.29 50.73L528.88 49.24L528.53 47.76L528.24 46.26L528.01 44.76L527.85 43.24L527.75 41.72L527.71 40.18L527.75 38.65L527.85 37.13L528.01 35.62L528.24 34.14L528.53 32.67L528.88 31.23L529.29 29.8L529.76 28.4L530.29 27.02L530.88 25.67L531.51 24.35L532.2 23.05L532.95 21.79L533.74 20.55L534.59 19.34L535.48 18.17L536.42 17.03L537.4 15.93L538.43 14.86L539.5 13.83L540.62 12.83L541.77 11.88L542.96 10.97L544.19 10.1L545.46 9.28L546.76 8.49L548.1 7.76L549.47 7.07L550.87 6.43L552.3 5.84L553.76 5.3L555.24 4.81L556.76 4.37L558.29 3.99L559.85 3.67L561.44 3.4L563.04 3.19L564.66 3.03L566.31 2.94L567.97 2.91L569.63 2.94L571.27 3.03ZM566.4 20.62L565.63 20.7L564.87 20.8L564.12 20.92L563.38 21.08L562.66 21.26L561.94 21.47L561.24 21.7L560.54 21.95L559.87 22.23L559.2 22.54L558.55 22.86L557.92 23.21L557.31 23.58L556.7 23.97L556.12 24.38L555.56 24.81L555.01 25.27L554.48 25.74L553.98 26.22L553.49 26.73L553.02 27.25L552.58 27.79L552.15 28.35L551.76 28.92L551.38 29.51L551.03 30.11L550.7 30.72L550.4 31.35L550.12 31.99L549.87 32.64L549.65 33.3L549.45 33.98L549.29 34.66L549.15 35.36L549.04 36.06L548.96 36.77L548.91 37.49L548.9 38.22L548.91 38.95L548.96 39.67L549.04 40.38L549.15 41.08L549.29 41.78L549.45 42.46L549.65 43.14L549.87 43.8L550.12 44.45L550.4 45.09L550.7 45.72L551.03 46.33L551.38 46.93L551.76 47.52L552.15 48.09L552.58 48.65L553.02 49.19L553.49 49.71L553.98 50.22L554.48 50.7L555.01 51.17L555.56 51.63L556.12 52.06L556.7 52.47L557.31 52.86L557.92 53.23L558.55 53.58L559.2 53.91L559.87 54.21L560.54 54.49L561.24 54.74L561.94 54.98L562.66 55.18L563.38 55.36L564.12 55.52L564.87 55.64L565.63 55.74L566.4 55.82L567.18 55.86L567.97 55.88L568.75 55.86L569.53 55.82L570.3 55.74L571.06 55.64L571.81 55.52L572.55 55.36L573.28 55.18L573.99 54.98L574.7 54.74L575.39 54.49L576.07 54.21L576.73 53.91L577.38 53.58L578.01 53.23L578.63 52.86L579.23 52.47L579.81 52.06L580.38 51.63L580.92 51.17L581.45 50.7L581.96 50.22L582.44 49.71L582.91 49.19L583.35 48.65L583.78 48.09L584.18 47.52L584.55 46.93L584.91 46.33L585.23 45.72L585.54 45.09L585.81 44.45L586.06 43.8L586.28 43.14L586.48 42.46L586.65 41.78L586.78 41.08L586.89 40.38L586.97 39.67L587.02 38.95L587.03 38.22L587.02 37.49L586.97 36.77L586.89 36.06L586.78 35.36L586.65 34.66L586.48 33.98L586.28 33.3L586.06 32.64L585.81 31.99L585.54 31.35L585.23 30.72L584.91 30.11L584.55 29.51L584.18 28.92L583.78 28.35L583.35 27.79L582.91 27.25L582.44 26.73L581.96 26.22L581.45 25.74L580.92 25.27L580.38 24.81L579.81 24.38L579.23 23.97L578.63 23.58L578.01 23.21L577.38 22.86L576.73 22.54L576.07 22.23L575.39 21.95L574.7 21.7L573.99 21.47L573.28 21.26L572.55 21.08L571.81 20.92L571.06 20.8L570.3 20.7L569.53 20.62L568.75 20.58L567.97 20.56L567.18 20.58L566.4 20.62Z" id="f13EOSNj0"></path><radialGradient id="gradientaeYOMaX" gradientUnits="userSpaceOnUse" cx="567.97" cy="2.91" dx="569.66" dy="174.94" r="172.04"><stop style="stop-color: #ffdf0b;stop-opacity: 1" offset="0%"></stop><stop style="stop-color: #cec909;stop-opacity: 1" offset="19.199999999999985%"></stop><stop style="stop-color: #010000;stop-opacity: 1" offset="100%"></stop></radialGradient></defs><g><g><use xlink:href="#f13EOSNj0" opacity="1" fill="url(#gradientaeYOMaX)"></use><g><use xlink:href="#f13EOSNj0" opacity="1" fill-opacity="0" stroke="#f4f4f4" stroke-width="1" stroke-opacity="1"></use></g></g></g></svg>