<?xml version="1.0" encoding="UTF-8" standalone="no"?>
<!DOCTYPE svg PUBLIC "-//W3C//DTD SVG 1.1//EN" "http://www.w3.org/Graphics/SVG/1.1/DTD/svg11.dtd">
<svg version="1.1" xmlns="http://www.w3.org/2000/svg" xmlns:xlink="http://www.w3.org/1999/xlink" preserveAspectRatio="xMidYMid meet" viewBox="222.22033898305074 5.12995212360957 84.50847457627117 109.93220338983053" width="80.51" height="105.93"><defs><path d="M266.78 6.25L268.4 6.41L270 6.62L271.59 6.89L273.15 7.21L274.69 7.59L276.2 8.03L277.68 8.52L279.14 9.06L280.57 9.65L281.97 10.29L283.34 10.98L284.68 11.71L285.98 12.5L287.25 13.32L288.48 14.19L289.67 15.1L290.83 16.05L291.94 17.05L293.01 18.08L294.04 19.15L295.02 20.25L295.96 21.39L296.85 22.56L297.7 23.77L298.49 25.01L299.24 26.27L299.93 27.57L300.57 28.89L301.15 30.25L301.68 31.62L302.15 33.02L302.56 34.45L302.91 35.89L303.2 37.36L303.43 38.84L303.6 40.35L303.7 41.87L303.73 43.4L303.7 44.94L303.6 46.46L303.43 47.98L303.2 49.48L302.91 50.98L302.56 52.47L302.15 53.95L301.68 55.43L301.15 56.92L300.57 58.4L299.93 59.89L299.24 61.38L298.49 62.88L297.7 64.38L296.85 65.9L295.96 67.42L295.02 68.96L294.04 70.52L293.01 72.09L291.94 73.68L290.83 75.29L289.67 76.92L288.48 78.58L287.25 80.26L285.98 81.97L284.68 83.71L283.34 85.48L281.97 87.28L280.57 89.12L279.14 90.99L277.68 92.9L276.2 94.84L274.69 96.83L273.15 98.87L271.59 100.94L270 103.07L268.4 105.24L266.78 107.46L265.13 109.74L263.47 112.06L261.82 109.74L260.17 107.46L258.55 105.24L256.95 103.07L255.36 100.94L253.8 98.87L252.26 96.83L250.75 94.84L249.26 92.9L247.81 90.99L246.38 89.12L244.98 87.28L243.61 85.48L242.27 83.71L240.97 81.97L239.7 80.26L238.47 78.58L237.28 76.92L236.12 75.29L235.01 73.68L233.94 72.09L232.91 70.52L231.93 68.96L230.99 67.42L230.1 65.9L229.25 64.38L228.46 62.88L227.71 61.38L227.02 59.89L226.38 58.4L225.8 56.92L225.27 55.43L224.8 53.95L224.39 52.47L224.04 50.98L223.75 49.48L223.52 47.98L223.35 46.46L223.25 44.94L223.22 43.4L223.25 41.87L223.35 40.35L223.52 38.84L223.75 37.36L224.04 35.89L224.39 34.45L224.8 33.02L225.27 31.62L225.8 30.25L226.38 28.89L227.02 27.57L227.71 26.27L228.46 25.01L229.25 23.77L230.1 22.56L230.99 21.39L231.93 20.25L232.91 19.15L233.94 18.08L235.01 17.05L236.12 16.05L237.28 15.1L238.47 14.19L239.7 13.32L240.97 12.5L242.27 11.71L243.61 10.98L244.98 10.29L246.38 9.65L247.81 9.06L249.26 8.52L250.75 8.03L252.26 7.59L253.8 7.21L255.36 6.89L256.95 6.62L258.55 6.41L260.17 6.25L261.82 6.16L263.47 6.13L265.13 6.16L266.78 6.25ZM261.91 23.84L261.14 23.92L260.38 24.02L259.63 24.14L258.89 24.3L258.16 24.48L257.45 24.69L256.74 24.92L256.05 25.17L255.38 25.45L254.71 25.76L254.06 26.08L253.43 26.43L252.81 26.8L252.21 27.19L251.63 27.6L251.07 28.04L250.52 28.49L249.99 28.96L249.48 29.44L249 29.95L248.53 30.47L248.09 31.01L247.66 31.57L247.26 32.14L246.89 32.73L246.54 33.33L246.21 33.94L245.91 34.57L245.63 35.21L245.38 35.86L245.16 36.52L244.96 37.2L244.79 37.88L244.66 38.58L244.55 39.28L244.47 39.99L244.42 40.71L244.41 41.44L244.42 42.17L244.47 42.89L244.55 43.6L244.66 44.3L244.79 45L244.96 45.68L245.16 46.36L245.38 47.02L245.63 47.67L245.91 48.31L246.21 48.94L246.54 49.55L246.89 50.15L247.26 50.74L247.66 51.31L248.09 51.87L248.53 52.41L249 52.93L249.48 53.44L249.99 53.92L250.52 54.39L251.07 54.85L251.63 55.28L252.21 55.69L252.81 56.08L253.43 56.45L254.06 56.8L254.71 57.13L255.38 57.43L256.05 57.71L256.74 57.96L257.45 58.2L258.16 58.4L258.89 58.58L259.63 58.74L260.38 58.86L261.14 58.97L261.91 59.04L262.69 59.08L263.47 59.1L264.26 59.08L265.04 59.04L265.81 58.97L266.57 58.86L267.32 58.74L268.06 58.58L268.79 58.4L269.5 58.2L270.21 57.96L270.9 57.71L271.57 57.43L272.24 57.13L272.89 56.8L273.52 56.45L274.14 56.08L274.74 55.69L275.32 55.28L275.88 54.85L276.43 54.39L276.96 53.92L277.47 53.44L277.95 52.93L278.42 52.41L278.86 51.87L279.29 51.31L279.69 50.74L280.06 50.15L280.41 49.55L280.74 48.94L281.04 48.31L281.32 47.67L281.57 47.02L281.79 46.36L281.99 45.68L282.15 45L282.29 44.3L282.4 43.6L282.48 42.89L282.53 42.17L282.54 41.44L282.53 40.71L282.48 39.99L282.4 39.28L282.29 38.58L282.15 37.88L281.99 37.2L281.79 36.52L281.57 35.86L281.32 35.21L281.04 34.57L280.74 33.94L280.41 33.33L280.06 32.73L279.69 32.14L279.29 31.57L278.86 31.01L278.42 30.47L277.95 29.95L277.47 29.44L276.96 28.96L276.43 28.49L275.88 28.04L275.32 27.6L274.74 27.19L274.14 26.8L273.52 26.43L272.89 26.08L272.24 25.76L271.57 25.45L270.9 25.17L270.21 24.92L269.5 24.69L268.79 24.48L268.06 24.3L267.32 24.14L266.57 24.02L265.81 23.92L265.04 23.84L264.26 23.8L263.47 23.79L262.69 23.8L261.91 23.84Z" id="af92UNb9k"></path><radialGradient id="gradientc2X6JJ2d1k" gradientUnits="userSpaceOnUse" cx="263.47" cy="6.13" dx="265.17" dy="178.16" r="172.04"><stop style="stop-color: #0bcfff;stop-opacity: 1" offset="0%"></stop><stop style="stop-color: #09b5ce;stop-opacity: 1" offset="19.199999999999985%"></stop><stop style="stop-color: #010000;stop-opacity: 1" offset="100%"></stop></radialGradient></defs><g><g><use xlink:href="#af92UNb9k" opacity="1" fill="url(#gradientc2X6JJ2d1k)"></use><g><use xlink:href="#af92UNb9k" opacity="1" fill-opacity="0" stroke="#f4f4f4" stroke-width="1" stroke-opacity="1"></use></g></g></g></svg>