<?xml version="1.0" encoding="UTF-8" standalone="no"?>
<!DOCTYPE svg PUBLIC "-//W3C//DTD SVG 1.1//EN" "http://www.w3.org/Graphics/SVG/1.1/DTD/svg11.dtd">
<svg version="1.1" xmlns="http://www.w3.org/2000/svg" xmlns:xlink="http://www.w3.org/1999/xlink" preserveAspectRatio="xMidYMid meet" viewBox="423.5762711864406 5.12995212360957 84.50847457627123 109.93220338983053" width="80.51" height="105.93"><defs><path d="M468.13 6.25L469.76 6.41L471.36 6.62L472.94 6.89L474.5 7.21L476.04 7.59L477.55 8.03L479.04 8.52L480.5 9.06L481.93 9.65L483.33 10.29L484.7 10.98L486.03 11.71L487.34 12.5L488.6 13.32L489.83 14.19L491.03 15.1L492.18 16.05L493.29 17.05L494.37 18.08L495.39 19.15L496.38 20.25L497.32 21.39L498.21 22.56L499.05 23.77L499.85 25.01L500.59 26.27L501.28 27.57L501.92 28.89L502.5 30.25L503.03 31.62L503.5 33.02L503.91 34.45L504.27 35.89L504.56 37.36L504.79 38.84L504.95 40.35L505.05 41.87L505.08 43.4L505.05 44.94L504.95 46.46L504.79 47.98L504.56 49.48L504.27 50.98L503.91 52.47L503.5 53.95L503.03 55.43L502.5 56.92L501.92 58.4L501.28 59.89L500.59 61.38L499.85 62.88L499.05 64.38L498.21 65.9L497.32 67.42L496.38 68.96L495.39 70.52L494.37 72.09L493.29 73.68L492.18 75.29L491.03 76.92L489.83 78.58L488.6 80.26L487.34 81.97L486.03 83.71L484.7 85.48L483.33 87.28L481.93 89.12L480.5 90.99L479.04 92.9L477.55 94.84L476.04 96.83L474.5 98.87L472.94 100.94L471.36 103.07L469.76 105.24L468.13 107.46L466.49 109.74L464.83 112.06L463.17 109.74L461.53 107.46L459.91 105.24L458.3 103.07L456.72 100.94L455.16 98.87L453.62 96.83L452.11 94.84L450.62 92.9L449.16 90.99L447.73 89.12L446.33 87.28L444.96 85.48L443.63 83.71L442.32 81.97L441.06 80.26L439.83 78.58L438.63 76.92L437.48 75.29L436.37 73.68L435.29 72.09L434.27 70.52L433.28 68.96L432.34 67.42L431.45 65.9L430.61 64.38L429.81 62.88L429.07 61.38L428.38 59.89L427.74 58.4L427.16 56.92L426.63 55.43L426.16 53.95L425.75 52.47L425.39 50.98L425.1 49.48L424.87 47.98L424.71 46.46L424.61 44.94L424.58 43.4L424.61 41.87L424.71 40.35L424.87 38.84L425.1 37.36L425.39 35.89L425.75 34.45L426.16 33.02L426.63 31.62L427.16 30.25L427.74 28.89L428.38 27.57L429.07 26.27L429.81 25.01L430.61 23.77L431.45 22.56L432.34 21.39L433.28 20.25L434.27 19.15L435.29 18.08L436.37 17.05L437.48 16.05L438.63 15.1L439.83 14.19L441.06 13.32L442.32 12.5L443.63 11.71L444.96 10.98L446.33 10.29L447.73 9.65L449.16 9.06L450.62 8.52L452.11 8.03L453.62 7.59L455.16 7.21L456.72 6.89L458.3 6.62L459.91 6.41L461.53 6.25L463.17 6.16L464.83 6.13L466.49 6.16L468.13 6.25ZM463.27 23.84L462.5 23.92L461.74 24.02L460.99 24.14L460.25 24.3L459.52 24.48L458.8 24.69L458.1 24.92L457.41 25.17L456.73 25.45L456.07 25.76L455.42 26.08L454.79 26.43L454.17 26.8L453.57 27.19L452.99 27.6L452.42 28.04L451.87 28.49L451.35 28.96L450.84 29.44L450.35 29.95L449.89 30.47L449.44 31.01L449.02 31.57L448.62 32.14L448.24 32.73L447.89 33.33L447.56 33.94L447.26 34.57L446.98 35.21L446.73 35.86L446.51 36.52L446.32 37.2L446.15 37.88L446.01 38.58L445.9 39.28L445.83 39.99L445.78 40.71L445.76 41.44L445.78 42.17L445.83 42.89L445.9 43.6L446.01 44.3L446.15 45L446.32 45.68L446.51 46.36L446.73 47.02L446.98 47.67L447.26 48.31L447.56 48.94L447.89 49.55L448.24 50.15L448.62 50.74L449.02 51.31L449.44 51.87L449.89 52.41L450.35 52.93L450.84 53.44L451.35 53.92L451.87 54.39L452.42 54.85L452.99 55.28L453.57 55.69L454.17 56.08L454.79 56.45L455.42 56.8L456.07 57.13L456.73 57.43L457.41 57.71L458.1 57.96L458.8 58.2L459.52 58.4L460.25 58.58L460.99 58.74L461.74 58.86L462.5 58.97L463.27 59.04L464.04 59.08L464.83 59.1L465.62 59.08L466.39 59.04L467.16 58.97L467.92 58.86L468.67 58.74L469.41 58.58L470.14 58.4L470.86 58.2L471.56 57.96L472.25 57.71L472.93 57.43L473.59 57.13L474.24 56.8L474.87 56.45L475.49 56.08L476.09 55.69L476.67 55.28L477.24 54.85L477.79 54.39L478.31 53.92L478.82 53.44L479.31 52.93L479.77 52.41L480.22 51.87L480.64 51.31L481.04 50.74L481.42 50.15L481.77 49.55L482.1 48.94L482.4 48.31L482.68 47.67L482.93 47.02L483.15 46.36L483.34 45.68L483.51 45L483.65 44.3L483.76 43.6L483.84 42.89L483.88 42.17L483.9 41.44L483.88 40.71L483.84 39.99L483.76 39.28L483.65 38.58L483.51 37.88L483.34 37.2L483.15 36.52L482.93 35.86L482.68 35.21L482.4 34.57L482.1 33.94L481.77 33.33L481.42 32.73L481.04 32.14L480.64 31.57L480.22 31.01L479.77 30.47L479.31 29.95L478.82 29.44L478.31 28.96L477.79 28.49L477.24 28.04L476.67 27.6L476.09 27.19L475.49 26.8L474.87 26.43L474.24 26.08L473.59 25.76L472.93 25.45L472.25 25.17L471.56 24.92L470.86 24.69L470.14 24.48L469.41 24.3L468.67 24.14L467.92 24.02L467.16 23.92L466.39 23.84L465.62 23.8L464.83 23.79L464.04 23.8L463.27 23.84Z" id="ePS5XxOU3"></path><radialGradient id="gradientdw5llIitR" gradientUnits="userSpaceOnUse" cx="464.83" cy="6.13" dx="466.53" dy="178.16" r="172.04"><stop style="stop-color: #3eff51;stop-opacity: 1" offset="0%"></stop><stop style="stop-color: #09ce2b;stop-opacity: 1" offset="19.199999999999985%"></stop><stop style="stop-color: #010000;stop-opacity: 1" offset="100%"></stop></radialGradient></defs><g><g><use xlink:href="#ePS5XxOU3" opacity="1" fill="url(#gradientdw5llIitR)"></use><g><use xlink:href="#ePS5XxOU3" opacity="1" fill-opacity="0" stroke="#f4f4f4" stroke-width="1" stroke-opacity="1"></use></g></g></g></svg>