<?xml version="1.0" encoding="UTF-8" standalone="no"?>
<!DOCTYPE svg PUBLIC "-//W3C//DTD SVG 1.1//EN" "http://www.w3.org/Graphics/SVG/1.1/DTD/svg11.dtd">
<svg version="1.1" xmlns="http://www.w3.org/2000/svg" xmlns:xlink="http://www.w3.org/1999/xlink" preserveAspectRatio="xMidYMid meet" viewBox="327.98305084745755 5.12995212360957 84.50847457627117 109.93220338983053" width="80.51" height="105.93"><defs><path d="M372.54 6.25L374.16 6.41L375.77 6.62L377.35 6.89L378.91 7.21L380.45 7.59L381.96 8.03L383.45 8.52L384.91 9.06L386.34 9.65L387.74 10.29L389.11 10.98L390.44 11.71L391.74 12.5L393.01 13.32L394.24 14.19L395.43 15.1L396.59 16.05L397.7 17.05L398.77 18.08L399.8 19.15L400.79 20.25L401.72 21.39L402.62 22.56L403.46 23.77L404.25 25.01L405 26.27L405.69 27.57L406.33 28.89L406.91 30.25L407.44 31.62L407.91 33.02L408.32 34.45L408.67 35.89L408.96 37.36L409.19 38.84L409.36 40.35L409.46 41.87L409.49 43.4L409.46 44.94L409.36 46.46L409.19 47.98L408.96 49.48L408.67 50.98L408.32 52.47L407.91 53.95L407.44 55.43L406.91 56.92L406.33 58.4L405.69 59.89L405 61.38L404.25 62.88L403.46 64.38L402.62 65.9L401.72 67.42L400.79 68.96L399.8 70.52L398.77 72.09L397.7 73.68L396.59 75.29L395.43 76.92L394.24 78.58L393.01 80.26L391.74 81.97L390.44 83.71L389.11 85.48L387.74 87.28L386.34 89.12L384.91 90.99L383.45 92.9L381.96 94.84L380.45 96.83L378.91 98.87L377.35 100.94L375.77 103.07L374.16 105.24L372.54 107.46L370.9 109.74L369.24 112.06L367.58 109.74L365.94 107.46L364.31 105.24L362.71 103.07L361.12 100.94L359.56 98.87L358.03 96.83L356.51 94.84L355.03 92.9L353.57 90.99L352.14 89.12L350.74 87.28L349.37 85.48L348.03 83.71L346.73 81.97L345.46 80.26L344.23 78.58L343.04 76.92L341.89 75.29L340.77 73.68L339.7 72.09L338.67 70.52L337.69 68.96L336.75 67.42L335.86 65.9L335.01 64.38L334.22 62.88L333.48 61.38L332.78 59.89L332.15 58.4L331.56 56.92L331.04 55.43L330.56 53.95L330.15 52.47L329.8 50.98L329.51 49.48L329.28 47.98L329.12 46.46L329.02 44.94L328.98 43.4L329.02 41.87L329.12 40.35L329.28 38.84L329.51 37.36L329.8 35.89L330.15 34.45L330.56 33.02L331.04 31.62L331.56 30.25L332.15 28.89L332.78 27.57L333.48 26.27L334.22 25.01L335.01 23.77L335.86 22.56L336.75 21.39L337.69 20.25L338.67 19.15L339.7 18.08L340.77 17.05L341.89 16.05L343.04 15.1L344.23 14.19L345.46 13.32L346.73 12.5L348.03 11.71L349.37 10.98L350.74 10.29L352.14 9.65L353.57 9.06L355.03 8.52L356.51 8.03L358.03 7.59L359.56 7.21L361.12 6.89L362.71 6.62L364.31 6.41L365.94 6.25L367.58 6.16L369.24 6.13L370.9 6.16L372.54 6.25ZM367.67 23.84L366.9 23.92L366.14 24.02L365.39 24.14L364.66 24.3L363.93 24.48L363.21 24.69L362.51 24.92L361.82 25.17L361.14 25.45L360.47 25.76L359.83 26.08L359.19 26.43L358.58 26.8L357.98 27.19L357.39 27.6L356.83 28.04L356.28 28.49L355.75 28.96L355.25 29.44L354.76 29.95L354.29 30.47L353.85 31.01L353.43 31.57L353.03 32.14L352.65 32.73L352.3 33.33L351.97 33.94L351.67 34.57L351.39 35.21L351.14 35.86L350.92 36.52L350.72 37.2L350.56 37.88L350.42 38.58L350.31 39.28L350.23 39.99L350.19 40.71L350.17 41.44L350.19 42.17L350.23 42.89L350.31 43.6L350.42 44.3L350.56 45L350.72 45.68L350.92 46.36L351.14 47.02L351.39 47.67L351.67 48.31L351.97 48.94L352.3 49.55L352.65 50.15L353.03 50.74L353.43 51.31L353.85 51.87L354.29 52.41L354.76 52.93L355.25 53.44L355.75 53.92L356.28 54.39L356.83 54.85L357.39 55.28L357.98 55.69L358.58 56.08L359.19 56.45L359.83 56.8L360.47 57.13L361.14 57.43L361.82 57.71L362.51 57.96L363.21 58.2L363.93 58.4L364.66 58.58L365.39 58.74L366.14 58.86L366.9 58.97L367.67 59.04L368.45 59.08L369.24 59.1L370.02 59.08L370.8 59.04L371.57 58.97L372.33 58.86L373.08 58.74L373.82 58.58L374.55 58.4L375.26 58.2L375.97 57.96L376.66 57.71L377.34 57.43L378 57.13L378.65 56.8L379.28 56.45L379.9 56.08L380.5 55.69L381.08 55.28L381.65 54.85L382.19 54.39L382.72 53.92L383.23 53.44L383.72 52.93L384.18 52.41L384.63 51.87L385.05 51.31L385.45 50.74L385.82 50.15L386.18 49.55L386.5 48.94L386.81 48.31L387.08 47.67L387.33 47.02L387.56 46.36L387.75 45.68L387.92 45L388.06 44.3L388.16 43.6L388.24 42.89L388.29 42.17L388.31 41.44L388.29 40.71L388.24 39.99L388.16 39.28L388.06 38.58L387.92 37.88L387.75 37.2L387.56 36.52L387.33 35.86L387.08 35.21L386.81 34.57L386.5 33.94L386.18 33.33L385.82 32.73L385.45 32.14L385.05 31.57L384.63 31.01L384.18 30.47L383.72 29.95L383.23 29.44L382.72 28.96L382.19 28.49L381.65 28.04L381.08 27.6L380.5 27.19L379.9 26.8L379.28 26.43L378.65 26.08L378 25.76L377.34 25.45L376.66 25.17L375.97 24.92L375.26 24.69L374.55 24.48L373.82 24.3L373.08 24.14L372.33 24.02L371.57 23.92L370.8 23.84L370.02 23.8L369.24 23.79L368.45 23.8L367.67 23.84Z" id="ajmOEAUGd"></path><radialGradient id="gradienta3Apdxq8V" gradientUnits="userSpaceOnUse" cx="369.24" cy="6.13" dx="370.93" dy="178.16" r="172.04"><stop style="stop-color: #ab3bff;stop-opacity: 1" offset="0%"></stop><stop style="stop-color: #7923dc;stop-opacity: 1" offset="19.199999999999985%"></stop><stop style="stop-color: #010000;stop-opacity: 1" offset="100%"></stop></radialGradient></defs><g><g><use xlink:href="#ajmOEAUGd" opacity="1" fill="url(#gradienta3Apdxq8V)"></use><g><use xlink:href="#ajmOEAUGd" opacity="1" fill-opacity="0" stroke="#f4f4f4" stroke-width="1" stroke-opacity="1"></use></g></g></g></svg>